<svg xmlns="http://www.w3.org/2000/svg">
<defs>
<font id="FontID0" font-style="normal" font-variant="normal" font-weight="400" horiz-adv-x="666" style="fill-rule:nonzero"><font-face font-family="Arial"><font-face-src><font-face-name name="Arial"/></font-face-src></font-face><missing-glyph><path d="M0 0"/></missing-glyph><glyph d="M91 0v99.9h99.8V0z" horiz-adv-x="277" unicode="."/><glyph d="m-1.7 0 275.1 716h103.8L669.1 0H560.8l-82.6 217H177L98.8 0zm206 294h244.4l-74.8 198.7a2624 2624 0 0 0-51.4 149c-10-46.3-22.8-92-39.6-137.8z" horiz-adv-x="666" unicode="А"/><glyph d="M81 716h464.8v-83.7h-370v-221H347q94.6 0 150.7-18.4c37.4-12.3 67-34.6 89.8-68.1A206 206 0 0 0 621.1 208c0-36.2-8.4-69.7-24-101.5a196 196 0 0 0-72.5-77C492.7 10 438 0 361.6 0H81zm94.8-635h189.7c51.4 0 89.3 10.5 115 31.2q38.5 31 38.5 93.7 0 44.4-21.8 73.7c-15 20-35.1 33.5-61.4 39.6-26.2 6.7-70.3 10-133.3 10H175.8z" horiz-adv-x="656" unicode="Б"/><glyph d="M73.1 0v716h268.4q82.2 0 131.7-21.8c33-14.5 59.2-36.8 77.6-67a174 174 0 0 0 28.4-94.3c0-30.7-8.3-59.1-25-86.5a180 180 0 0 0-74.8-65.3q64.6-19.2 99.8-65.3a174 174 0 0 0 34.6-108.2q-.1-50.2-21.2-93.8a183 183 0 0 0-52.4-66.4A215 215 0 0 0 462 12.3Q414.4-.2 346 0zM168 415.2H323q63 0 89.8 8.3a97 97 0 0 1 54.7 35.8 103 103 0 0 1 18.4 62.5c0 24-5.5 44.6-17.2 63a86 86 0 0 1-48.6 37.4q-31.8 10-108.8 10H168zm0-331h178.5c30.7 0 52 1.2 64.8 3.4 21.2 4 39.6 10 54.1 19.5 15 9 26.8 22.4 36.3 39.7q14.4 26.7 14.5 60.8c0 26.8-7.3 49.7-20.7 69.7-14 20.1-32.9 33.5-57.4 41.9-24 7.8-59.2 11.7-104.4 11.7H168z" horiz-adv-x="666" unicode="В"/><glyph d="M79.2 716H542v-83.7H174V0H79.2z" horiz-adv-x="541" unicode="Г"/><glyph d="M79.2 0v716H596v-83.7H174V411.8h395.1v-83.7h-395V84.3h438.5V0z" horiz-adv-x="666" unicode="Е"/><glyph d="m38 202 89.8 22.9c7.2-34.6 25.1-69.2 55.2-103.8q44.5-51.9 118.3-51.9 74.7 0 118.3 38.5 43.5 38.7 43.6 93.2.1 59.3-45.8 94.3c-30.1 22.9-72 34.6-124.4 34.6h-45.2v83.1q65.4.1 99.9 7.9 34.2 6.6 60.8 38.5 26.8 30 26.8 70.3c0 30.7-12.3 58-36.3 80.9S342 645 301.3 645q-54.4.1-92-27.4a138 138 0 0 1-53-72q-14.4-44.2-14.6-67l-91 21.3C73.2 651.8 156.9 728.2 302 728.2q104.7 0 165.7-58.6Q529 611.2 529 533.5q.2-99.7-94.3-155.2 54.6-15 91.5-61.9 36.9-46.1 36.9-111.6-.1-92-71.5-154.6C443.6 9 380.6-12.3 302-12.3q-202.6 0-264 214.3" horiz-adv-x="603" unicode="З"/><glyph d="M79.2 716h86V149l381.1 567h93.8V0h-86v565.3L174.1 0H79.2z" horiz-adv-x="718" unicode="И"/><glyph d="M79.2 716h95V401.8c42.9 0 73.6 9 90.9 25.7q26.6 25 67.5 121c19.5 47 36.3 80.4 49.1 100 12.8 19 31.2 35.7 55.2 48.5q35.3 20 78.2 20c36.8 0 55.8-.5 58-1v-82c-3.3 0-10 0-19 .5-10.6.5-16.7.5-19.5.5q-45.2.2-67-22.3Q445 591 416.3 519c-24-60.3-44.6-98.8-61.4-114.4a180 180 0 0 0-59.1-38c46.3-12.8 91.5-55.8 136.7-128.3L579.8 0H462.6L342.1 194.2q-49.5 80.4-82 110.5-33.4 30-86 30.1V0H79.2z" horiz-adv-x="582" unicode="К"/><glyph d="M130 716h447V0h-94.9v632.3H225v-369q.1-112.8-10.6-164.5c-6.7-35.2-21.8-62.5-44.1-82-22.3-19-51.3-29-86-29Q53.4-12.3 9 1l17.3 83.7a89 89 0 0 1 39.6-11.7q32-.2 48 24T130 211.5z" horiz-adv-x="656" unicode="Л"/><glyph d="M74.8 0v716H217l169-506.7q23.6-71 34.7-106 11.8 38.6 38 114.9L631 716h126.7V0h-91v598.8L458.2 0h-85.3l-207 610V0z" horiz-adv-x="833" unicode="М"/><glyph d="M48 348.8c0 118.3 31.8 211.5 96 278.4 63.6 67.6 146.2 101 247.2 101 65.8 0 125.5-16.1 178.6-47.4q79.6-47.7 121.6-132.3a433 433 0 0 0 41.9-192c0-71.9-15.1-137.2-44.1-194.1Q645 76 564.7 32.4a358 358 0 0 0-174-44.7 340 340 0 0 0-180.9 49.1c-53 32.4-93.7 77-121 133.4A409 409 0 0 0 48 348.8m98.2-1.7c0-86.5 22.9-154 69.2-203.7Q284.8 69 390.1 69.2c71.4 0 130 24.5 175.7 74.8Q635.2 219 635 357q-.1 87-29.5 152.4c-19.6 43-48.6 77-86.5 100.4q-57 36.1-127.3 36.3c-67 0-125-23.4-173-69.2-48.5-45.8-72.5-122.8-72.5-229.9" horiz-adv-x="777" unicode="О"/><glyph d="M78.1 716h562V0h-94.9v632.3H173V0H78z" horiz-adv-x="718" unicode="П"/><glyph d="M77 0v716h270.1q71.9 0 109.4-6.7a221 221 0 0 0 88.1-33.5c24-16.2 43-39.6 57.5-69.2 14.5-29 21.8-62 21.8-97.1 0-60.8-19-112.2-58-154.6q-58-62.9-210.4-63H171.9V0zM172 376.1H357c61.4 0 104.4 11.2 130.6 34 25.7 23 38.5 54.7 38.5 96.6q-.1 44.5-22.9 76.4a104 104 0 0 1-59.7 42.5q-24.2 6.6-88.7 6.7H172z" horiz-adv-x="666" unicode="Р"/><glyph d="m587 251.1 95-24Q652.5 111 574.7 49.1 497.6-12 386.2-12.3C309.2-12.3 246 4 198 35.2c-48.5 31.2-85.4 77-110.5 136.1a491 491 0 0 0-37.4 192c0 74.8 14 139.5 42.4 195.3a292 292 0 0 0 121.7 126.1 352 352 0 0 0 173 43.5q108-.1 180.8-54.7c48.5-36.8 82.6-87.6 102.1-154L577 497.8q-25 77.8-72 113.8-47.6 35.1-119.4 35.2-82 .1-137.3-39.1c-36.8-26.8-63-62-77.5-106.6q-22.8-66-23-137.3 0-91 26.9-159.6C192 159 219.9 125 257.3 102.7a230 230 0 0 1 121-33.5q79.5-.2 134 45.8c36.8 30.6 62 75.8 74.8 136.1" horiz-adv-x="722" unicode="С"/><glyph d="M259 0v632.3H22.8V716h567v-83.7H353.7V0z" horiz-adv-x="611" unicode="Т"/><glyph d="m4.5 0 276.8 371.7L37.3 716h112.8l130.6-183c27.3-38 45.8-67 57-87.1q24 36.9 56.8 79.8L537.4 716h103.8L392.9 375.6 660.2 0H544L363.3 255.6q-15.2 21.9-29.6 43a970 970 0 0 0-34-50.3L118.3 0z" horiz-adv-x="666" unicode="Х"/><glyph d="M79.2 716h95V84.3h237V716h95V84.3h236.5V716h95.5V0h-759z" horiz-adv-x="916" unicode="Ш"/><glyph d="M81 716h95V395h138q10.1 152.2 99.9 242.5 89.4 90.5 222 90.5 139.5 0 231.2-98.7 92-98.5 91.9-267.5 0-175.5-91.7-274.7Q775.8-12 632.8-12q-129.7 0-216 85.8Q330 159.6 315 311H176V0H81zm327-361.4q0-135.8 62.4-210.6 62.3-75 163.4-75 103.6 0 165.4 75.2Q861 219.4 861 360.5q0 133.7-60.8 210.7-60.8 76.7-164.6 76.8-105.4 0-166.6-77.8-61-78-61-215.6" horiz-adv-x="1010" unicode="Ю"/><glyph d="M405.1 64.7q-49.2-41-94.3-58.6a265 265 0 0 0-97-17.3c-57.5 0-101 14-131.8 41.9-30.7 27.9-45.7 63-45.7 106.6q-.1 37.5 17.3 69.2a136 136 0 0 0 45.2 50.2c19 12.8 39.6 22.3 63.6 29q26 6.8 78.1 13.4c70.9 7.8 123.3 18.4 156.8 30.1.6 11.8.6 19.6.6 22.4q0 53.4-25.1 75.9-33.6 29.4-100 29.5-62.7 0-92-21.7-29.2-21.8-43.5-77L50.8 370c7.8 36.8 20.6 67 39 89.3 17.9 22.8 44.1 40.1 77.6 52.4 34 12.3 73.7 18.4 118.3 18.4q66.3.1 108.3-15.6c27.9-10.6 48-23.4 61.4-39.6a144 144 0 0 0 27.3-59.7c2.8-15 4.5-42.4 4.5-81V217.7q-.2-122.3 5.5-155.1A197 197 0 0 1 514 0h-92.1Q408.5 27.8 405 64.7M398 260q-47.7-19.4-144-32.9-54.5-7.6-77-17.8a75 75 0 0 1-34.6-28 75 75 0 0 1-12.3-41.8c0-23.4 9-42.4 26.8-58S200.3 58 235 58a181 181 0 0 1 90.4 22.4 135 135 0 0 1 58 60.2c9.6 19.6 14 49.1 14 87.6z" horiz-adv-x="556" unicode="а"/><glyph d="m444.2 733.3 77.6-1.2c-3.4-35.1-11.2-59.1-23-73a81 81 0 0 0-45.7-26.3q-27.7-5.7-110-5.6c-71.9 0-121.6-7.2-147.8-21.2a122 122 0 0 1-57-67q-16.4-46-18.9-118.8 33.3 49.3 77.6 74.2A206 206 0 0 0 297.4 519q101.6-.2 168.6-69.8 67-70.2 67-189.7 0-91.2-33.6-149c-22.8-38.5-49-68.6-80.3-89.9q-46-31.8-125.6-31.8-92.2-.1-143.4 42.4A276 276 0 0 0 71.4 139Q44 205 44.1 368.3q-.1 205 69.2 276.8 69.3 71 213.2 70.9c60.2 0 93.7 1 102 2.7a22 22 0 0 1 15.7 14.6m-3.4-471.6q-.1 81-37.9 132.8-38.7 51.2-108.3 51.4c-48.5 0-85.9-17.9-112.1-54.7q-39.5-54.4-39.6-145.7c0-59.7 14.5-106 44-137.8a138 138 0 0 1 107.2-47.4c43.5 0 79.2 18.4 106 55.2q40.9 55.1 40.7 146.2" horiz-adv-x="573" unicode="б"/><glyph d="M65.8 519h202.6q74.4 0 111-12.3c24-8.4 45.3-23.4 62.6-45.8a127 127 0 0 0 26.2-79.8c0-25-5.6-46.8-15.6-64.7-10-19-25.7-34-46.4-46.3a122 122 0 0 0 60.9-45.8 132 132 0 0 0 24-79.2c-3.4-49.1-20.7-86-53-109.4Q390 0 299.7 0H65.8zM154 300.2h93.2q56-.1 77 5.6c14 4 26.2 11.7 37.4 24a60 60 0 0 1 16.2 43q0 41-28.5 56.9c-19.5 11.1-52.4 16.2-99.3 16.2h-96zM154 72h115.5q74.5-.1 102.2 17.3t29.5 60.3a75 75 0 0 1-16.2 45.7 67 67 0 0 1-41.8 26.8q-26 6-83.2 6.1H154z" horiz-adv-x="531" unicode="в"/><glyph d="M65.8 519H365v-73.1H154V0H65.8z" horiz-adv-x="364" unicode="г"/><glyph d="M135 519h362.2V72H553v-218.8h-72V0H72v-146.8H0V72h45.8q93.6 126.3 89.2 447m73.1-73.1c-6.6-168.6-32.9-293-78-374h279v374z" horiz-adv-x="583" unicode="д"/><glyph d="m420.2 168 91-11.7c-14.5-53-40.8-94.4-79.3-123.4-39-29-88.1-44-148.4-44-76 0-135.6 23.4-180.3 70.3-44 46.3-66.4 111.6-66.4 195.8q-.1 130.5 67.6 202.6 66.9 72.6 174 72.5c69.3 0 126.2-23.4 169.7-70.8q66-70.6 65.9-198.7.1-8.4-.6-23.4H127.2c3.4-57 19-100.5 48-130.6a143 143 0 0 1 108.3-45.8c32.3 0 59.7 9 82.6 25.7 22.3 16.7 40.7 44 54.1 81.5m-288 141.2h288.6q-5.2 65.4-33 98.2A136 136 0 0 1 279 458a138 138 0 0 1-101.5-40.7q-41.1-40.3-45.2-108.2" horiz-adv-x="556" unicode="е"/><glyph d="M380 519V295.2q42.9-.2 59.7 15.6c11.8 10.6 28 41.9 49.7 93.8 19.5 49.6 38 80.9 54.1 94.3s41.3 20 76.5 20h31.8v-72.5l-23.5.6q-35.1 0-45.2-10c-6.6-7.3-17.3-29-31.2-64.2-12.8-34-25.1-57.5-35.7-70.9q-16.8-19.3-52-35.2 56.9-15.7 111.1-106L672 0h-96.6l-93.7 160.7c-19.5 32.4-36.3 54.1-50.2 64.2a87 87 0 0 1-51.4 15V0h-89.8v240q-29.2 0-50.8-15.1c-14.5-10-30.7-31.3-49.7-64.2L95 0H-2.2l96.5 160.7Q149 251 206 266.7c-25.7 11.8-44 25.2-54.7 39.1-10.6 14-25.6 48-46.8 101.6-7.3 17.8-14.6 29-23 32.9-8.3 4.5-21.1 6.1-37.3 6.1-4.5 0-12.9 0-26.2-.5v73H30q51.1-.2 71.5-6c14-4 26.2-12.9 37.4-25.7q16.5-20 42.4-82.6c21.2-51.4 37.3-82 48.5-93.2 11.7-11.2 31.8-16.2 60.3-16.2V519z" horiz-adv-x="669" unicode="ж"/><glyph d="M180.8 235V304q56 .1 75.9 4.5a71 71 0 0 1 38.5 22.9 72 72 0 0 1 17.9 49q0 35.4-24 56.4a88 88 0 0 1-60.9 21.2q-74.3 0-104.3-87l-83.7 14Q78.8 530 228.8 530q83 0 130-45.2a146 146 0 0 0 47.4-108.2c0-41.9-20.6-76-61.3-100.5 26.2-14 45.2-31.8 58.6-53.5a149 149 0 0 0 19.5-77Q423 76 372.2 32.3q-51-43.5-142.3-43.6Q52.4-11.2 24 146.2l83.1 17.9Q118 114.7 153 87a124 124 0 0 1 78.7-26.8c29.6 0 54.1 7.8 73.6 25a78 78 0 0 1 29.6 63.7c0 20-6.1 38-18.4 53a79 79 0 0 1-39.6 28c-14 3.8-39 5.5-76 5.5q-4 .2-20-.6" horiz-adv-x="458" unicode="з"/><glyph d="M65.8 519H154V123.3L398.4 519h94.3V0h-87.6v393.4L160.7 0H65.8z" horiz-adv-x="558" unicode="и"/><glyph d="M65.8 519H154V123.3L398.4 519h94.3V0h-87.6v393.4L160.7 0H65.8zM370 711h60.2c-5-41.4-20-72.6-45.2-95-25-22.3-58-32.9-99.3-32.9-41.8 0-75.3 10.6-99.9 33-25 21.7-40.2 53.5-44.6 94.8h59.7c4.5-22.3 14-39 27.3-50.2Q248.4 644 283 644q39.5.2 59.7 16.2c14 10.6 23 27.9 27.4 50.7" horiz-adv-x="558" unicode="й"/><glyph d="M64.7 519H153V295.2c27.9 0 48 5 59.2 16.2 11.1 10.6 27.3 41.8 49.6 93.2 17.3 41.3 31.3 68 41.9 81.4a84 84 0 0 0 37.4 26.3c14 4.4 36.2 6.7 67.5 6.7h17.3v-72.6l-24.6.6c-22.9 0-38-3.4-44-10-7.3-7.3-17.4-29-31.3-64.2q-20.1-50.9-36.8-70.9-17-19.3-51.4-35.2 57.2-15.7 111.6-106L446 0h-96.6L254 160.2c-19 32.9-35.7 54-49.7 64.1A84 84 0 0 1 153 240V0H64.7z" horiz-adv-x="437" unicode="к"/><glyph d="M108.8 519h409V.6h-87.6v445.3H197V188c0-60.3-2.2-100-5.6-119.5-4.5-19-15-35.7-32.4-50.2C141.2 4 116-2.8 82.6-2.8 62.5-2.8 38.5-1.7 12.3.6v73.6h38q27.4-.1 39 5.6a26 26 0 0 1 15.6 17.9c2.8 7.8 4 34.6 4 79.2z" horiz-adv-x="583" unicode="л"/><glyph d="M69.2 519h135l137.3-415.2L493.3 519h125.6V0h-87.6v418L378.3 0h-78.6L155 438V0H69.2z" horiz-adv-x="687" unicode="м"/><glyph d="M65.8 519H154V303H398v216H486V0H398v230H154V0H65.8z" horiz-adv-x="551" unicode="н"/><glyph d="M33 259.5q0 143.8 80.3 213.2c44.6 37.9 98.8 57.4 163 57.4q107 0 174.6-70.3c45.2-46.3 68-111 68-193q0-99.9-30-156.9-30.1-57.5-87.7-89.3a252 252 0 0 0-125-31.8Q167.6-11 100 58.6c-44.7 46.3-67 113.8-67 200.9m89.8 0q0-99.6 43.5-149c29.6-33 65.8-49.7 110-49.7 43.5 0 80.3 16.8 109.3 49.7 29 33.5 43.5 83.7 43.5 151.8 0 63.6-15 112.1-44 145Q341.5 457 276.1 457a141 141 0 0 1-110-49q-43.5-49.6-43.4-148.5" horiz-adv-x="556" unicode="о"/><glyph d="M65.8 519H476V0h-88.2v445.9H154V0H65.8z" horiz-adv-x="541" unicode="п"/><glyph d="M65.8-199.2V519h80.4v-68.1a192 192 0 0 0 63.6 59.1c24 13.4 52.5 20.1 86.5 20.1 44.1 0 83.2-11.7 117.2-34 34-22.9 59.2-55.3 76.5-96.5a348 348 0 0 0 26.2-136.2q0-79.4-28.5-142.9A217 217 0 0 0 404.6 23a215 215 0 0 0-114.4-34q-44.4-.1-78.7 18.4A184 184 0 0 0 154 54v-253.3zM146.2 256q0-99.6 40.2-147.3t98.2-48q57.9.2 99.9 49.7c27.9 33 41.3 84.3 41.3 152.9 0 66.4-13.4 115.5-40.2 148.4-27.3 33-59.7 49.1-97.7 49.1q-56 .1-98.7-52.4c-29-34.6-43-85.4-43-152.4" horiz-adv-x="556" unicode="р"/><glyph d="m405.1 189.7 86-11.7Q477 89.3 418.5 39C380 5.7 332-11.1 275.7-11.1q-106.3.2-170.8 69.8c-43.5 46.3-64.7 112.7-64.7 198.7 0 56.3 9 104.9 27.9 147.3a190 190 0 0 0 84.2 93.7q57 31.8 124 31.8 84.3-.1 137.8-43c35.7-28.4 59.1-68.6 69.2-121l-85.4-12.9q-11.8 52-43 78.7a114 114 0 0 1-75.3 26.2c-44.1 0-80.4-16.1-108.3-47.4Q130.2 363 130 260c0-69.7 13.4-120 40.2-151.7a131 131 0 0 1 104.4-47.5q52 0 86.4 31.8c23 21.2 38 53.6 44.1 97.1" horiz-adv-x="500" unicode="с"/><glyph d="M20 519h419.7v-73.1H274V0h-88.2v445.9H20.1z" horiz-adv-x="458" unicode="т"/><glyph d="m62-199.8-10.1 81.5q29.3-7.7 50.2-7.8 30 0 47.5 10a80 80 0 0 1 29 27.4c5 8.9 14.5 30.7 26.8 65.3 1.6 5 3.9 12.2 7.8 21.7L16.2 519h93.7l108.3-299.7c14.5-38 26.8-77.6 38-120q15.2 59.5 36.2 117.2L403 519h88.2L294.6-9C273.4-65.7 257.3-105 245-126q-23.4-43.5-53.6-63.6a130 130 0 0 0-72.5-20.1q-26 0-57 10" horiz-adv-x="500" unicode="у"/><glyph d="m6.1 0 189.2 269L20.1 519h108.2l82-122.2a3601 3601 0 0 0 35.8-56.4l39.6 56.4L372.2 519h107.2L303 269 491 0H384L276.7 160.2l-24.6 38.5L113.2 0z" horiz-adv-x="500" unicode="х"/><glyph d="M67 519H155V72H399v447h88.2V72H544v-218.8h-72V0H67z" horiz-adv-x="573" unicode="ц"/><glyph d="M33 519h88v-98.2c0-41.9 2.3-72.6 8-91.6 5-19 16.6-35.7 36.2-50.2 19-14 43.5-21.2 72.5-21.2q50.1 0 129.5 26.8V519h87.6V0h-87.6v209.3a516 516 0 0 0-151.8-25.1q-59.6.1-105 29.5a155 155 0 0 0-61.3 73.7 277 277 0 0 0-16.2 96z" horiz-adv-x="521" unicode="ч"/><glyph d="M69.2 519h87.6V73h200.3V519h87.7V73H645V519h88.2V0H69.2z" horiz-adv-x="801" unicode="ш"/><glyph d="M560.3 519h87.6V0h-87.6zm-491.1 0h87.6V315.8h111q108.9 0 167.5-41.8c39-28.5 58.6-67 58.6-116.6q.1-65.2-49.1-111C412.4 15 359.9 0 288.5 0H69.2zm87.6-447h92.6c55.3 0 95.5 6.7 118.9 20.6q35.8 20.1 35.7 63.6c0 23-9 43-26.2 60.3-17.9 17.9-56.4 26.2-116.6 26.2H156.8z" horiz-adv-x="718" unicode="ы"/><glyph d="M64.2 519h87.6V315.8h111.6q108.6 0 168-41.8c39-28.5 58.6-67 58.6-116.6q.1-65.2-49.2-111C408 15 356 0 284 0H64.2zm87.6-447h92.6q83.9-.1 120 20.6c23.4 13.4 35.7 34.6 35.7 63.6q0 34.4-26.8 60.3c-17.3 17.9-56.3 26.2-117.2 26.2H151.8z" horiz-adv-x="521" unicode="ь"/><glyph d="M67 519H155V301.9h107.2q11.6 111.2 69.2 169.6 57.9 58.6 150 58.6 78.7 0 124-31.8a244 244 0 0 0 74.7-87c20.1-37.4 29.6-87 29.6-149.6 0-89.3-20-157.3-60.8-203.7-40.7-45.7-96-69.2-165.7-69.2Q387-11 327.6 53.6c-38.5 43-60.9 101.5-65.3 176.3H155V0H67zm419.6-64.2q-64.4.1-100.4-49.1-36.2-49.4-36.3-139 .1-106 36.3-156.2 36-49.6 97-49.7c40.2 0 72.6 15.7 98.3 46.3C607 137.8 620 187 620 255.6q0 99.4-33.5 149.5-32.8 49.6-99.9 49.7" horiz-adv-x="750" unicode="ю"/><glyph d="M474.9 519V0h-87.6v202h-50.8q-46.7.2-69.2-12.3-22.7-11.7-66.4-77L123.3 0H14.5l94.9 139.5q43.5 63.6 87 72c-50.2 6.7-87.6 25.1-112.1 54.1A157 157 0 0 0 48 367.2q-.2 67.7 47.4 109.4Q143.2 519 233.8 519zm-87.6-73.1h-125c-52.5 0-86.5-7.8-101.6-24.6a81 81 0 0 1-22.9-56.9q0-46.9 33.5-68.6Q205 273.9 289.6 274h97.7z" horiz-adv-x="541" unicode="я"/></font>
</defs>
</svg>
